<svg width="140" height="132" viewBox="0 0 140 132" fill="none" xmlns="http://www.w3.org/2000/svg">
    <g clip-path="url(#clip0_34_1441)">
        <path
        d="M35.3972 25.5862C35.728 19.267 36.0167 12.9431 36.4039 6.62622C36.399 5.57687 36.6407 4.54125 37.1093 3.6038C37.5779 2.66636 38.2601 1.85377 39.1002 1.23213C39.9404 0.610502 40.9146 0.197515 41.9436 0.0269137C42.9725 -0.143688 44.0269 -0.067077 45.0208 0.25046C50.1154 1.44771 55.1796 2.79124 60.2742 3.95779C67.6804 5.58119 75.3694 5.35016 82.6661 3.28484C86.7634 2.19622 90.8794 1.20672 95.0166 0.243254C96.0129 -0.0673612 97.068 -0.136703 98.096 0.0407502C99.124 0.218204 100.096 0.637432 100.932 1.26442C101.769 1.89141 102.446 2.70841 102.91 3.64877C103.373 4.58913 103.609 5.62627 103.598 6.6758C103.833 10.3053 104.002 13.942 104.192 17.5763C104.661 26.4773 105.131 35.3783 105.6 44.2793C105.64 45.0279 105.731 45.6513 104.708 45.9607C97.2924 48.5504 89.6873 50.555 81.9621 51.9564C70.0981 53.6734 58.006 52.8061 46.5039 49.4131C42.8877 48.3505 39.3114 47.1532 35.6952 46.0882C34.6791 45.7883 34.2872 45.3798 34.367 44.2321C34.7565 38.0215 35.0498 31.8039 35.376 25.5909L35.3972 25.5862Z"
        fill="#91A0B5"
        />
        <path
        d="M30.9831 37.2659C30.8258 40.1988 30.685 43.0868 30.5137 45.9749C30.3917 47.975 30.6827 48.4544 32.6257 49.0447C40.4758 51.8401 48.5253 54.0323 56.7049 55.6024C70.2884 57.6766 84.1657 56.5275 97.2295 52.2468C100.667 51.1322 104.117 50.0483 107.583 49.0258C107.906 48.9723 108.214 48.8536 108.49 48.6768C108.766 48.5 109.003 48.2688 109.188 47.9971C109.373 47.7255 109.501 47.419 109.565 47.0962C109.628 46.7734 109.626 46.4409 109.559 46.1189C109.324 43.2332 109.219 40.3381 109.038 37.1147C112.478 38.0593 115.766 38.8268 118.976 39.847C125.228 41.4987 131.076 44.4243 136.158 48.4425C136.951 49.1325 137.668 49.9051 138.299 50.7473C139.402 51.9525 140.015 53.5314 140.015 55.1703C140.015 56.8091 139.402 58.3881 138.299 59.5933C136.678 61.5201 134.78 63.1916 132.667 64.5522C125.963 68.5028 118.636 71.2672 111.004 72.7252C93.6577 76.49 75.8746 77.8078 58.1669 76.6405C46.4285 76.1491 34.7842 74.3118 23.4597 71.1643C17.1422 69.5871 11.1412 66.9288 5.71884 63.3054C4.48065 62.4186 3.34416 61.3961 2.33025 60.2568C1.59325 59.6016 1.00528 58.7943 0.60644 57.8897C0.207595 56.9852 0.00724327 56.0048 0.0190476 55.0153C0.0308519 54.0257 0.254533 53.0504 0.674841 52.1558C1.09515 51.2611 1.70221 50.4683 2.45463 49.8311C4.75487 47.6113 7.34141 45.713 10.1447 44.1872C16.4967 40.9234 23.2812 38.5933 30.2908 37.2682C30.521 37.2465 30.7527 37.2457 30.9831 37.2659Z"
        fill="#91A0B5"
        />
        <path
        d="M98.5436 90.3745C101.262 90.3948 103.95 90.9606 106.449 92.0388C108.948 93.117 111.208 94.6859 113.097 96.6537C114.986 98.6216 116.466 100.949 117.451 103.499C118.435 106.05 118.904 108.772 118.831 111.507C118.773 114.216 118.186 116.886 117.102 119.366C116.017 121.846 114.458 124.086 112.512 125.958C110.567 127.831 108.273 129.299 105.763 130.278C103.253 131.258 100.576 131.73 97.8842 131.667C95.1791 131.611 92.5118 131.017 90.0363 129.918C87.5608 128.819 85.3262 127.238 83.4615 125.265C81.5968 123.292 80.139 120.967 79.1724 118.424C78.2057 115.881 77.7493 113.171 77.8296 110.449C77.9686 105.035 80.2196 99.8942 84.096 96.1375C87.9723 92.3809 93.1623 90.3106 98.5436 90.3745Z"
        fill="#91A0B5"
        />
        <path
        d="M62.5012 111.03C62.4999 116.499 60.3404 121.743 56.4973 125.61C52.6542 129.477 47.4423 131.649 42.0077 131.65C39.3036 131.648 36.6266 131.107 34.1307 130.06C31.6347 129.013 29.3691 127.48 27.4639 125.549C25.5588 123.618 24.0518 121.327 23.0295 118.807C22.0073 116.288 21.4899 113.591 21.5073 110.869C21.5155 108.162 22.0548 105.482 23.094 102.984C24.1333 100.487 25.6522 98.22 27.5636 96.3141C29.475 94.4082 31.7414 92.9006 34.2329 91.8778C36.7244 90.8549 39.392 90.3368 42.0828 90.3533C44.7744 90.3557 47.439 90.8932 49.9236 91.9348C52.4082 92.9763 54.6638 94.5015 56.5611 96.4228C58.4583 98.344 59.9597 100.623 60.9791 103.13C61.9984 105.637 62.5157 108.322 62.5012 111.03Z"
        fill="#91A0B5"
        />
        <path d="M81.2817 96.2946L79.0383 99.0433C71.3717 93.0901 67.7203 93.9591 61.0252 99.0433C60.6427 98.5828 60.2508 98.1176 59.866 97.6477C59.4811 97.1778 59.1502 96.7574 58.7959 96.3182C66.3686 89.137 74.1736 89.6991 81.2817 96.2946Z" fill="#91A0B5" />
    </g>
    <defs>
        <clipPath id="clip0_34_1441">
        <rect width="140" height="131.667" fill="white" />
        </clipPath>
    </defs>
</svg>