<svg width="125" height="31" viewBox="0 0 125 31" fill="none" xmlns="http://www.w3.org/2000/svg">
    <path d="M9.03932 30.68C5.25265 30.68 2.50598 29.4 0.799316 26.84L4.55932 23.64C5.51932 25.1867 7.01265 25.96 9.03932 25.96C9.65265 25.96 10.1726 25.84 10.5993 25.6C11.026 25.36 11.2393 25 11.2393 24.52C11.2393 24.0933 11.0526 23.7467 10.6793 23.48C10.3327 23.1867 9.62598 22.8933 8.55932 22.6L7.07932 22.24C5.23932 21.76 3.83932 20.96 2.87932 19.84C1.94598 18.72 1.50598 17.3867 1.55932 15.84C1.61265 14.0267 2.33265 12.5733 3.71932 11.48C5.13265 10.36 6.91932 9.8 9.07932 9.8C12.146 9.8 14.4527 10.92 15.9993 13.16L12.3993 16.08C11.466 14.9067 10.3327 14.32 8.99932 14.32C8.46598 14.32 7.99932 14.44 7.59932 14.68C7.19932 14.92 6.99932 15.2533 6.99932 15.68C6.99932 16.48 7.65265 17.0533 8.95932 17.4L10.8393 17.96C14.706 19 16.6393 21.0667 16.6393 24.16C16.6393 26.0533 15.9193 27.6133 14.4793 28.84C13.0393 30.0667 11.226 30.68 9.03932 30.68Z" fill="#1D66FF"/>
    <path d="M29.9681 30.48C27.7281 30.48 25.8881 29.8667 24.4481 28.64C23.0347 27.3867 22.3281 25.5867 22.3281 23.24V15.04H18.2881V10.24H22.3281V4.68H27.8081V10.24H33.4481V15.04H27.8081V22.16C27.8081 23.3867 28.0747 24.2667 28.6081 24.8C29.1414 25.3067 30.0081 25.56 31.2081 25.56C32.0614 25.56 32.8081 25.44 33.4481 25.2V30.04C32.4881 30.3333 31.3281 30.48 29.9681 30.48Z" fill="#1D66FF"/>
    <path d="M45.2049 30.68C42.5649 30.68 40.3383 29.6533 38.5249 27.6C36.7116 25.5467 35.8049 23.0933 35.8049 20.24C35.8049 17.3867 36.7116 14.9333 38.5249 12.88C40.3383 10.8267 42.5649 9.8 45.2049 9.8C46.4849 9.8 47.6316 10.0667 48.6449 10.6C49.6583 11.1333 50.4316 11.76 50.9649 12.48V10.24H56.4449V30.24H50.9649V28C50.4316 28.72 49.6583 29.3467 48.6449 29.88C47.6316 30.4133 46.4849 30.68 45.2049 30.68ZM42.6849 24.16C43.6183 25.1733 44.8449 25.68 46.3649 25.68C47.8849 25.68 49.0983 25.1733 50.0049 24.16C50.9383 23.1467 51.4049 21.84 51.4049 20.24C51.4049 18.64 50.9383 17.3333 50.0049 16.32C49.0983 15.3067 47.8849 14.8 46.3649 14.8C44.8449 14.8 43.6183 15.3067 42.6849 16.32C41.7783 17.3333 41.3249 18.64 41.3249 20.24C41.3249 21.84 41.7783 23.1467 42.6849 24.16Z" fill="#1D66FF"/>
    <path d="M61.7724 30.24V0.239999H67.2524V30.24H61.7724Z" fill="#1D66FF"/>
    <path d="M86.1546 30.24L77.9946 21.04V30.24H72.5146V0.239999H77.9946V17.6L84.4746 10.24H91.0746L83.1546 19.24L92.9146 30.24H86.1546Z" fill="#1D66FF"/>
    <path d="M97.4612 6.96C96.5279 6.96 95.7145 6.62667 95.0212 5.96C94.3279 5.26667 93.9812 4.44 93.9812 3.48C93.9812 2.52 94.3279 1.70667 95.0212 1.04C95.7145 0.346667 96.5279 0 97.4612 0C98.4479 0 99.2745 0.346667 99.9412 1.04C100.635 1.70667 100.981 2.52 100.981 3.48C100.981 4.44 100.635 5.26667 99.9412 5.96C99.2745 6.62667 98.4479 6.96 97.4612 6.96ZM94.7412 30.24V10.24H100.221V30.24H94.7412Z" fill="#1D66FF"/>
    <path d="M114.803 30.68C111.763 30.68 109.23 29.72 107.203 27.8C105.203 25.88 104.203 23.36 104.203 20.24C104.203 17.2533 105.203 14.7733 107.203 12.8C109.203 10.8 111.71 9.8 114.723 9.8C117.497 9.8 119.83 10.6667 121.723 12.4C123.617 14.1067 124.563 16.52 124.563 19.64C124.563 20.52 124.537 21.1467 124.483 21.52H109.523C109.683 22.8267 110.257 23.8533 111.243 24.6C112.257 25.32 113.457 25.68 114.843 25.68C117.19 25.68 118.91 24.84 120.003 23.16L124.083 26.2C122.03 29.1867 118.937 30.68 114.803 30.68ZM109.723 17.8H119.083C118.843 16.6533 118.297 15.7867 117.443 15.2C116.617 14.6133 115.657 14.32 114.563 14.32C113.443 14.32 112.417 14.6133 111.483 15.2C110.55 15.7867 109.963 16.6533 109.723 17.8Z" fill="#1D66FF"/>
</svg>
