<svg width="43" height="40" viewBox="0 0 43 40" fill="none" xmlns="http://www.w3.org/2000/svg">
    <g clip-path="url(#clip0_34_1578)">
        <path
        d="M10.8212 7.77301C10.9223 5.85325 11.0106 3.93206 11.1289 2.01302C11.1275 1.69423 11.2014 1.37961 11.3446 1.09482C11.4879 0.810023 11.6964 0.56316 11.9532 0.374309C12.2101 0.185459 12.5079 0.0599947 12.8225 0.00816629C13.137 -0.0436621 13.4594 -0.0203879 13.7632 0.0760792C15.3207 0.4398 16.8688 0.847962 18.4263 1.20236C20.6905 1.69554 23.0411 1.62536 25.2717 0.997917C26.5243 0.667197 27.7826 0.366589 29.0474 0.0738899C29.352 -0.0204742 29.6746 -0.0415402 29.9888 0.0123698C30.3031 0.0662798 30.6002 0.19364 30.8559 0.384118C31.1116 0.574595 31.3187 0.822798 31.4604 1.10848C31.602 1.39416 31.6741 1.70924 31.6709 2.02808C31.7427 3.13073 31.7943 4.23554 31.8524 5.33962C31.9959 8.04373 32.1394 10.7478 32.2829 13.4519C32.2951 13.6794 32.3231 13.8688 32.0103 13.9627C29.7431 14.7495 27.4182 15.3585 25.0565 15.7842C21.4296 16.3058 17.7329 16.0424 14.2166 15.0116C13.1111 14.6888 12.0178 14.325 10.9123 14.0015C10.6017 13.9104 10.4818 13.7863 10.5062 13.4376C10.6253 11.5508 10.715 9.66193 10.8147 7.77445L10.8212 7.77301Z"
        fill="#1D66FF"
        />
        <path
        d="M9.47176 11.3212C9.4237 12.2122 9.38065 13.0896 9.32828 13.967C9.29098 14.5747 9.37993 14.7203 9.97394 14.8996C12.3738 15.7489 14.8346 16.4149 17.3352 16.8919C21.4878 17.522 25.7302 17.1729 29.7239 15.8724C30.7749 15.5338 31.8295 15.2045 32.8891 14.8939C32.9877 14.8776 33.0821 14.8416 33.1664 14.7878C33.2507 14.7341 33.3233 14.6639 33.3798 14.5814C33.4362 14.4988 33.4754 14.4057 33.4949 14.3077C33.5143 14.2096 33.5138 14.1086 33.4931 14.0108C33.4214 13.1341 33.3891 12.2546 33.3339 11.2753C34.3856 11.5623 35.3907 11.7955 36.3721 12.1054C38.2832 12.6072 40.0711 13.4959 41.6249 14.7167C41.8671 14.9263 42.0864 15.161 42.2791 15.4169C42.6165 15.783 42.8038 16.2627 42.8038 16.7606C42.8038 17.2584 42.6165 17.7381 42.2791 18.1043C41.7837 18.6896 41.2033 19.1974 40.5574 19.6108C38.5081 20.8109 36.2682 21.6508 33.9351 22.0937C28.632 23.2374 23.1955 23.6378 17.7821 23.2832C14.1936 23.1339 10.6338 22.5757 7.17178 21.6195C5.24047 21.1404 3.40591 20.3328 1.74825 19.232C1.36972 18.9626 1.02228 18.6519 0.712323 18.3058C0.487014 18.1068 0.307268 17.8615 0.185337 17.5867C0.0634066 17.3119 0.00215723 17.0141 0.00576591 16.7135C0.0093746 16.4129 0.0777559 16.1166 0.206248 15.8448C0.33474 15.573 0.520323 15.3321 0.750345 15.1385C1.45355 14.4642 2.24428 13.8875 3.10126 13.4239C5.04315 12.4324 7.11723 11.7245 9.26013 11.322C9.33051 11.3154 9.40134 11.3151 9.47176 11.3212Z"
        fill="#1D66FF"
        />
        <path
        d="M30.1258 27.4556C30.9569 27.4618 31.7785 27.6336 32.5425 27.9612C33.3064 28.2888 33.9974 28.7654 34.5749 29.3632C35.1524 29.961 35.6049 30.668 35.9058 31.4428C36.2068 32.2176 36.3502 33.0447 36.3277 33.8756C36.3102 34.6984 36.1305 35.5097 35.7991 36.2631C35.4677 37.0164 34.9909 37.697 34.3961 38.2659C33.8013 38.8347 33.1002 39.2807 32.3328 39.5783C31.5655 39.8758 30.747 40.0192 29.9242 40C29.0972 39.9831 28.2818 39.8026 27.525 39.4687C26.7682 39.1349 26.0851 38.6545 25.515 38.0552C24.945 37.4558 24.4993 36.7495 24.2038 35.9769C23.9083 35.2044 23.7688 34.381 23.7933 33.5542C23.8358 31.9095 24.5239 30.3476 25.709 29.2064C26.894 28.0651 28.4806 27.4362 30.1258 27.4556Z"
        fill="#1D66FF"
        />
        <path
        d="M19.1071 33.7306C19.1067 35.3921 18.4465 36.9853 17.2716 38.16C16.0968 39.3347 14.5034 39.9948 12.842 39.995C12.0153 39.9942 11.197 39.8301 10.4339 39.512C9.6709 39.1939 8.97826 38.7281 8.39585 38.1415C7.81343 37.5548 7.35272 36.8587 7.04021 36.0934C6.7277 35.3281 6.56954 34.5085 6.57484 33.6819C6.57737 32.8592 6.74222 32.0452 7.05993 31.2864C7.37764 30.5276 7.84198 29.839 8.42632 29.26C9.01066 28.681 9.70352 28.223 10.4652 27.9122C11.2269 27.6015 12.0424 27.4441 12.865 27.4491C13.6878 27.4498 14.5024 27.6131 15.262 27.9295C16.0215 28.246 16.7111 28.7093 17.2911 29.293C17.8711 29.8767 18.3301 30.5691 18.6417 31.3307C18.9534 32.0922 19.1115 32.9078 19.1071 33.7306Z"
        fill="#1D66FF"
        />
        <path d="M24.8485 29.2541L24.1626 30.0891C21.8189 28.2806 20.7026 28.5446 18.6559 30.0891C18.539 29.9492 18.4191 29.8079 18.3015 29.6651C18.1838 29.5224 18.0827 29.3947 17.9744 29.2612C20.2894 27.0796 22.6755 27.2504 24.8485 29.2541Z" fill="#1D66FF" />
    </g>
    <defs>
        <clipPath id="clip0_34_1578">
        <rect width="42.7993" height="40" fill="white" />
        </clipPath>
    </defs>
</svg>